<?xml version="1.0" standalone="no"?>
<!DOCTYPE svg PUBLIC "-//W3C//DTD SVG 20010904//EN"
 "http://www.w3.org/TR/2001/REC-SVG-20010904/DTD/svg10.dtd">
<svg version="1.0" xmlns="http://www.w3.org/2000/svg"
 width="800.000000pt" height="800.000000pt" viewBox="0 0 800.000000 800.000000"
 preserveAspectRatio="xMidYMid meet">
<metadata>
Created by potrace 1.14, written by Peter Selinger 2001-2017
</metadata>
<g transform="translate(0.000000,800.000000) scale(0.100000,-0.100000)"
fill="#000000" stroke="none">
<path d="M490 7125 c-223 -55 -400 -229 -467 -460 -17 -56 -18 -191 -21 -2140
-3 -2258 -4 -2195 52 -2386 14 -47 36 -110 50 -140 l24 -54 1 2256 c1 2211 1
2257 21 2333 46 179 168 333 330 414 154 77 -42 72 2553 72 l2327 0 0 60 0 60
-2407 -1 c-1984 -1 -2418 -3 -2463 -14z"/>
<path d="M7315 7031 c-2 -5 7 -12 21 -15 35 -9 40 -2 9 12 -13 6 -27 7 -30 3z"/>
<path d="M660 6756 c-25 -7 -63 -22 -85 -34 l-40 -21 2698 -1 2697 0 0 -22 c0
-21 2 -20 33 9 76 72 16 67 877 73 426 3 -780 6 -2680 7 -2729 1 -3464 -1
-3500 -11z"/>
<path d="M7844 6618 l21 -43 0 -2565 0 -2565 -22 -41 c-28 -53 -91 -107 -142
-122 -28 -9 -258 -12 -832 -12 -747 0 -796 2 -834 19 -22 10 -55 30 -72 45
-31 26 -33 27 -33 7 l0 -21 -2707 -2 -2708 -3 65 -32 c36 -18 90 -37 121 -43
36 -7 1195 -9 3484 -8 l3430 3 59 23 c166 63 275 189 312 360 21 103 21 4664
-1 4767 -23 108 -79 208 -147 263 -12 9 -11 2 6 -30z"/>
<path d="M409 6588 c-40 -55 -73 -129 -88 -196 -8 -39 -11 -690 -11 -2390 0
-2571 -4 -2401 61 -2523 17 -31 42 -67 55 -80 l24 -22 0 2626 c0 1445 -2 2627
-5 2627 -3 0 -19 -19 -36 -42z"/>
<path d="M6070 5745 l0 -835 324 0 325 0 6 -47 c19 -161 65 -262 159 -356 110
-110 237 -161 396 -160 186 1 351 91 451 246 61 95 84 174 84 297 0 124 -24
209 -83 293 l-37 52 -5 670 -5 670 -807 3 -808 2 0 -835z m1372 -513 c80 -39
139 -101 181 -190 73 -156 22 -349 -120 -458 -73 -56 -144 -76 -249 -72 -110
5 -184 36 -256 110 -68 70 -100 144 -106 245 -7 134 47 254 149 328 78 58 139
76 245 72 79 -2 100 -7 156 -35z"/>
<path d="M610 6005 l0 -535 172 2 173 3 18 105 c23 139 50 227 98 328 70 145
201 260 347 303 l42 12 0 159 0 158 -425 0 -425 0 0 -535z"/>
<path d="M1620 6397 l0 -143 153 -12 c236 -18 526 -84 890 -202 l152 -49 75
44 c264 155 557 254 885 301 146 21 446 23 590 5 447 -56 853 -224 1188 -490
42 -34 82 -61 89 -60 7 0 65 33 128 73 l115 73 3 301 2 302 -2135 0 -2135 0 0
-143z"/>
<path d="M3890 6193 c-182 -18 -370 -60 -541 -118 -111 -38 -389 -170 -389
-185 0 -8 268 -247 294 -262 7 -4 70 22 141 58 144 72 320 132 470 160 139 26
489 27 620 1 221 -43 474 -146 645 -261 47 -32 88 -58 92 -59 11 -3 268 158
268 168 -1 6 -35 35 -78 67 -329 240 -708 388 -1101 428 -96 9 -341 11 -421 3z"/>
<path d="M1628 6084 c-5 -4 -8 -143 -8 -310 l0 -302 303 -4 302 -4 40 46 c91
103 166 178 265 263 58 50 106 94 108 98 8 19 -480 155 -678 188 -132 22 -321
37 -332 25z"/>
<path d="M1390 6028 c-95 -47 -170 -149 -218 -298 -20 -60 -52 -214 -52 -246
0 -12 29 -14 168 -12 l167 3 3 288 c2 226 0 287 -10 287 -7 0 -33 -10 -58 -22z"/>
<path d="M2715 5728 c-99 -78 -325 -302 -325 -321 0 -7 26 -25 58 -41 73 -36
165 -102 241 -171 l59 -55 54 67 c67 83 182 198 266 266 59 48 62 52 45 68
-58 54 -296 259 -301 259 -4 0 -47 -33 -97 -72z"/>
<path d="M5817 5704 l-58 -36 58 -63 c32 -34 61 -63 66 -64 4 0 7 44 7 99 0
55 -4 100 -8 100 -4 0 -34 -16 -65 -36z"/>
<path d="M4007 5709 c-98 -11 -217 -36 -311 -65 -87 -28 -296 -122 -296 -135
0 -9 245 -193 323 -243 96 -60 232 -125 314 -148 106 -30 264 -30 379 0 92 25
220 74 326 128 105 53 316 173 323 184 14 23 -240 156 -400 209 -210 69 -448
95 -658 70z"/>
<path d="M5488 5502 c-70 -42 -127 -81 -128 -86 0 -5 39 -50 88 -100 179 -186
310 -394 403 -641 l34 -89 3 343 2 344 -56 75 c-56 74 -201 232 -213 232 -3 0
-63 -35 -133 -78z"/>
<path d="M3204 5387 c-125 -100 -255 -233 -330 -339 l-25 -35 37 -54 c94 -139
185 -362 224 -551 21 -98 40 -146 40 -103 0 11 22 65 49 120 127 264 339 451
616 545 l80 28 -95 47 c-144 72 -360 219 -508 347 -18 15 -36 28 -40 28 -4 0
-25 -15 -48 -33z"/>
<path d="M5130 5283 c-151 -92 -366 -203 -496 -254 -73 -30 -131 -55 -129 -58
3 -2 39 -19 81 -37 159 -70 351 -230 445 -374 88 -133 147 -288 170 -439 14
-102 7 -298 -16 -391 -82 -341 -324 -620 -647 -747 -38 -14 -66 -28 -64 -30 2
-3 47 -20 100 -38 115 -40 297 -128 465 -225 115 -66 126 -71 149 -59 49 27
251 249 322 355 228 341 336 747 302 1138 -34 396 -169 727 -421 1027 -67 80
-168 180 -182 179 -2 0 -38 -21 -79 -47z"/>
<path d="M610 4010 l0 -1300 163 0 162 0 0 1300 0 1300 -162 0 -163 0 0 -1300z"/>
<path d="M1096 5153 c-7 -204 -7 -2287 0 -2375 l6 -68 179 0 179 0 0 1300 0
1300 -179 0 -179 0 -6 -157z"/>
<path d="M1620 4010 l0 -1300 230 0 c129 0 230 4 230 9 0 5 -17 38 -39 73
-162 267 -274 602 -312 937 -15 138 -7 514 15 641 53 305 153 577 304 827 34
56 62 105 62 108 0 3 -110 5 -245 5 l-245 0 0 -1300z"/>
<path d="M2257 5238 c-164 -217 -312 -600 -363 -933 -25 -162 -25 -465 -1
-625 47 -305 154 -601 307 -848 48 -78 54 -83 79 -77 78 19 232 119 313 202
l47 48 -53 105 c-143 279 -206 551 -206 881 1 338 63 602 211 888 32 63 59
120 59 126 0 15 -99 109 -165 157 -44 32 -184 108 -199 108 -3 0 -16 -15 -29
-32z"/>
<path d="M3970 4866 c-297 -66 -523 -247 -650 -520 -132 -281 -107 -610 66
-879 62 -96 191 -220 292 -281 101 -60 253 -113 350 -122 l72 -7 0 81 c0 68
-3 81 -17 86 -10 3 -38 10 -63 16 -208 54 -390 264 -461 530 -31 119 -32 319
-1 438 75 291 264 491 515 546 26 6 27 9 27 66 l0 60 -37 -1 c-21 -1 -63 -7
-93 -13z"/>
<path d="M4250 4820 c0 -57 1 -60 28 -66 249 -55 444 -263 513 -549 30 -122
30 -316 1 -425 -32 -118 -59 -183 -111 -262 -108 -164 -217 -240 -418 -294 -9
-2 -13 -28 -13 -84 0 -93 -7 -90 119 -60 169 41 322 131 447 262 267 281 328
692 155 1036 -93 185 -260 345 -449 429 -51 23 -229 73 -259 73 -9 0 -13 -19
-13 -60z"/>
<path d="M2705 4768 c-231 -491 -231 -1051 -1 -1553 l37 -80 19 25 c38 50 109
197 143 296 123 354 125 742 7 1094 -33 101 -136 310 -151 310 -6 0 -30 -42
-54 -92z"/>
<path d="M4055 4602 c-70 -24 -133 -63 -179 -111 -22 -22 -38 -42 -35 -44 2
-1 40 -13 84 -26 284 -80 445 -306 379 -532 -42 -143 -169 -260 -350 -321 -47
-15 -91 -28 -99 -28 -25 0 -17 -16 28 -57 192 -177 441 -160 623 41 66 72 125
190 148 293 23 101 21 268 -4 363 -68 262 -264 441 -484 440 -34 -1 -84 -8
-111 -18z"/>
<path d="M6415 4304 c-47 -26 -66 -46 -86 -89 -18 -38 -19 -97 -19 -1243 0
-1163 1 -1204 19 -1240 35 -67 104 -112 174 -112 49 0 128 44 157 87 l25 37 3
1218 c2 1202 2 1219 -18 1258 -33 64 -81 94 -159 97 -47 2 -75 -1 -96 -13z"/>
<path d="M3722 4259 c-61 -165 -61 -373 0 -538 l20 -53 52 6 c128 17 271 93
332 175 93 127 54 273 -99 372 -65 42 -155 75 -233 85 l-52 6 -20 -53z m243
-214 c16 -15 25 -36 25 -55 0 -36 -38 -80 -69 -80 -57 0 -99 51 -85 104 14 57
86 74 129 31z"/>
<path d="M3121 3650 c-47 -180 -76 -272 -114 -358 -42 -96 -139 -266 -158
-277 -5 -4 -9 -13 -9 -22 0 -45 218 -281 363 -394 l89 -69 121 94 c163 125
275 197 403 258 l106 51 -85 27 c-288 92 -514 289 -643 558 -19 40 -41 96 -48
125 l-14 52 -11 -45z"/>
<path d="M5846 3295 c-102 -263 -223 -452 -420 -653 -63 -64 -106 -116 -100
-121 5 -4 65 -43 134 -86 l125 -77 95 99 c53 55 121 134 153 175 l57 75 -2
343 -3 344 -39 -99z"/>
<path d="M7075 2945 c-43 -24 -65 -45 -86 -87 -18 -35 -19 -67 -19 -562 0
-346 4 -534 11 -553 24 -64 109 -123 179 -123 70 0 155 59 179 123 7 19 11
207 11 553 0 504 -1 526 -20 564 -33 64 -81 94 -159 98 -47 2 -75 -2 -96 -13z"/>
<path d="M2659 2804 c-79 -68 -144 -112 -231 -155 -38 -18 -68 -37 -68 -41 0
-16 140 -165 229 -245 120 -107 250 -205 266 -201 7 2 75 57 150 123 76 66
145 125 152 131 12 8 4 18 -44 54 -83 62 -255 232 -320 318 -31 39 -59 72 -63
72 -3 0 -35 -25 -71 -56z"/>
<path d="M4118 2820 c-121 -22 -263 -81 -396 -166 -95 -61 -283 -205 -277
-213 2 -5 49 -27 103 -49 369 -153 757 -170 1128 -48 103 34 346 155 341 169
-7 23 -292 176 -431 232 -172 69 -349 97 -468 75z"/>
<path d="M2140 2559 c-25 -4 -152 -8 -283 -8 l-237 -1 2 -357 3 -358 105 3
c131 3 299 31 500 83 151 39 470 136 470 143 0 2 -40 35 -89 74 -119 94 -214
185 -303 289 -125 148 -116 141 -168 132z"/>
<path d="M610 2015 l0 -535 423 2 422 3 3 106 3 106 -43 12 c-147 44 -277 157
-348 305 -49 102 -93 270 -111 424 l-12 112 -169 0 -168 0 0 -535z"/>
<path d="M1110 2521 c0 -49 38 -252 61 -326 41 -135 101 -226 181 -279 29 -19
65 -38 81 -42 l27 -6 0 341 0 341 -175 0 -175 0 0 -29z"/>
<path d="M5801 2356 c-40 -41 -71 -78 -67 -84 6 -11 138 -92 149 -92 4 0 7 56
7 125 0 69 -3 125 -8 125 -4 0 -41 -33 -81 -74z"/>
<path d="M5065 2358 c-465 -285 -1057 -328 -1556 -114 -57 24 -125 56 -152 71
l-47 27 -136 -119 c-75 -65 -145 -124 -155 -132 -11 -7 -19 -18 -19 -23 0 -12
201 -107 321 -152 553 -204 1188 -174 1722 82 157 75 406 230 407 254 0 10
-257 168 -272 167 -7 0 -58 -28 -113 -61z"/>
<path d="M5535 2119 c-233 -186 -562 -348 -864 -424 -580 -146 -1218 -65
-1715 216 l-71 41 -205 -66 c-408 -131 -663 -189 -907 -208 l-153 -12 0 -93 0
-93 2133 2 2132 3 0 250 0 249 -140 88 c-77 48 -144 88 -150 87 -5 0 -32 -18
-60 -40z"/>
</g>
</svg>
