<svg width="139" height="107" viewBox="0 0 139 107" fill="none" xmlns="http://www.w3.org/2000/svg">
<g id="ao-chan">
<path id="Rectangle 74" d="M15.9141 101.623C7.62979 101.623 0.914062 94.9077 0.914062 86.6234L0.914058 8.07224C0.914058 3.65397 4.49578 0.0722502 8.91406 0.07225L124.326 0.072245C131.506 0.0722447 137.326 5.89254 137.326 13.0722L137.326 93.6234C137.326 98.0417 133.744 101.623 129.326 101.623L15.9141 101.623Z" fill="#46227A"/>
<path id="Rectangle 73" d="M9.18848 97.0763C5.87477 97.0763 3.18848 94.39 3.18848 91.0763L3.18847 10.3457C3.18847 5.92746 6.77019 2.34573 11.1885 2.34573L128.811 2.34572C132.677 2.34572 135.811 5.47973 135.811 9.34572L135.811 97.0763L9.18848 97.0763Z" fill="#C6C6C6"/>
<rect id="Rectangle 72" x="6.21973" y="102.381" width="95.9046" height="132.668" rx="6" transform="rotate(-90 6.21973 102.381)" fill="#594D70"/>
<path id="Rectangle 76" d="M93.3711 2.34576L93.3711 0.0722306L126.474 0.0722291C127.026 0.0722291 127.474 0.519944 127.474 1.07223L127.474 1.34576C127.474 1.89805 127.026 2.34576 126.474 2.34576L93.3711 2.34576Z" fill="#F3A360"/>
<circle id="Ellipse 13" cx="71.3943" cy="54.6371" r="39.9236" transform="rotate(-90 71.3943 54.6371)" fill="#392E47" stroke="#8F7BAB" stroke-width="2"/>
<path id="Ellipse 14" d="M72.9095 23.0497C89.4733 23.0497 102.981 37.1464 102.981 54.637C102.981 72.1277 89.4733 86.2244 72.9095 86.2244C56.3458 86.2244 42.8379 72.1277 42.8379 54.6371C42.8379 37.1464 56.3458 23.0497 72.9095 23.0497Z" stroke="#8F7BAB" stroke-width="2"/>
<g id="Group 29" filter="url(#filter0_d)">
<path id="Union" fill-rule="evenodd" clip-rule="evenodd" d="M71.9089 67.7088L71.9089 71.0557C63.3318 70.7294 56.4785 63.673 56.4785 55.016C56.4785 46.359 63.3318 39.3026 71.9089 38.9763L71.9089 41.5653C66.234 42.1799 62.057 47.9776 62.057 54.6371C62.057 61.2966 66.234 67.0943 71.9089 67.7088ZM73.9089 41.5653L73.9089 39.0229C82.1284 39.7222 88.5815 46.6155 88.5815 55.016C88.5815 63.4165 82.1284 70.3098 73.9089 71.0091L73.9089 67.7088C79.5839 67.0943 83.7609 61.2966 83.7609 54.6371C83.7609 47.9776 79.5839 42.1799 73.9089 41.5653ZM54.4785 55.016C54.4785 64.9856 62.5604 73.0675 72.53 73.0675C82.4996 73.0675 90.5815 64.9856 90.5815 55.016C90.5815 45.0464 82.4996 36.9645 72.53 36.9645C62.5604 36.9645 54.4785 45.0464 54.4785 55.016ZM72.9089 65.7626C70.4586 65.7626 68.1594 64.4668 66.5187 62.328C68.5971 62.0476 70.4794 61.3244 71.9595 60.276C73.8875 58.9103 75.2017 56.9311 75.2017 54.6371C75.2017 52.3431 73.8875 50.3639 71.9595 48.9982C70.4794 47.9498 68.5971 47.2265 66.5187 46.9461C68.1594 44.8074 70.4586 43.5116 72.9089 43.5116C77.6137 43.5116 81.7609 48.2886 81.7609 54.6371C81.7609 60.9856 77.6137 65.7626 72.9089 65.7626ZM70.8034 58.6439C69.4136 59.6284 67.5082 60.3022 65.3504 60.434C64.5349 58.7665 64.057 56.7923 64.057 54.6371C64.057 52.4818 64.5349 50.5077 65.3504 48.8401C67.5082 48.9719 69.4136 49.6458 70.8034 50.6302C72.3604 51.7331 73.2017 53.1641 73.2017 54.6371C73.2017 56.11 72.3604 57.5411 70.8034 58.6439ZM69.8774 54.6371C69.8774 53.8 69.1988 53.1214 68.3617 53.1214C67.5246 53.1214 66.846 53.8 66.846 54.6371C66.846 55.4742 67.5246 56.1528 68.3617 56.1528C69.1988 56.1528 69.8774 55.4742 69.8774 54.6371Z" fill="#AD5472"/>
</g>
<g id="Vector" filter="url(#filter1_d)">
<path d="M103.224 99.3498L10.0088 99.3499L10.0088 9.16635L103.224 9.16635M27.4392 9.92419L27.4392 98.592M18.5363 78.1302L35.9391 78.1302C45.8938 78.1302 53.9638 67.4423 53.9638 54.2581C53.9638 41.0739 45.8938 30.386 35.9391 30.386L18.672 30.386M18.5363 78.1302L10.0088 78.1302M18.5363 78.1302C18.1742 72.1965 18.4319 64.5345 18.4629 55.1652M18.5363 78.1302C19.4871 93.711 24.7119 97.3751 49.5375 88.7398C73.7886 67.1413 73.0307 69.4148 104.102 88.7399M18.672 30.386L10.0088 30.386M18.672 30.386C18.1174 36.5417 18.4286 44.8109 18.4629 55.1652M18.672 30.386C19.937 16.3458 25.7059 13.3011 49.5375 21.5906C73.7886 43.1892 73.0307 40.9156 104.102 21.5906M18.4659 53.4197C18.4659 54.008 18.4648 54.5898 18.4629 55.1652M18.4629 55.1652C18.4648 55.7406 18.4659 56.3225 18.4659 56.9108" stroke="#8F7BAB" stroke-width="2" shape-rendering="auto"/>
</g>
<rect id="Rectangle 75" x="102.466" y="101.623" width="94.7306" height="34.103" rx="3" transform="rotate(-90 102.466 101.623)" fill="#F3A360"/>
<rect id="Rectangle 77" x="105.497" y="38.7222" width="28.7981" height="28.0402" transform="rotate(-90 105.497 38.7222)" fill="#583F7C"/>
<circle id="Ellipse 20" cx="126.338" cy="39.1012" r="8.47306" transform="rotate(-90 126.338 39.1012)" fill="#CA620B" stroke="#543838" stroke-width="2"/>
<g id="Group 28">
<line id="Line 5" x1="109.818" y1="93.0605" x2="109.818" y2="51.0742" stroke="#6A6182" stroke-width="5" stroke-linecap="round"/>
<line id="Line 6" x1="121.186" y1="93.0605" x2="121.186" y2="74.5674" stroke="#6A6182" stroke-width="5" stroke-linecap="round"/>
</g>
</g>
<defs>
<filter id="filter0_d" x="50.4785" y="36.9645" width="44.103" height="44.103" filterUnits="userSpaceOnUse" color-interpolation-filters="sRGB">
<feFlood flood-opacity="0" result="BackgroundImageFix"/>
<feColorMatrix in="SourceAlpha" type="matrix" values="0 0 0 0 0 0 0 0 0 0 0 0 0 0 0 0 0 0 127 0" result="hardAlpha"/>
<feOffset dy="4"/>
<feGaussianBlur stdDeviation="2"/>
<feComposite in2="hardAlpha" operator="out"/>
<feColorMatrix type="matrix" values="0 0 0 0 0 0 0 0 0 0 0 0 0 0 0 0 0 0 0.25 0"/>
<feBlend mode="normal" in2="BackgroundImageFix" result="effect1_dropShadow"/>
<feBlend mode="normal" in="SourceGraphic" in2="effect1_dropShadow" result="shape"/>
</filter>
<filter id="filter1_d" x="5.00879" y="6.16632" width="103.622" height="100.184" filterUnits="userSpaceOnUse" color-interpolation-filters="sRGB">
<feFlood flood-opacity="0" result="BackgroundImageFix"/>
<feColorMatrix in="SourceAlpha" type="matrix" values="0 0 0 0 0 0 0 0 0 0 0 0 0 0 0 0 0 0 127 0" result="hardAlpha"/>
<feOffset dy="2"/>
<feGaussianBlur stdDeviation="2"/>
<feComposite in2="hardAlpha" operator="out"/>
<feColorMatrix type="matrix" values="0 0 0 0 0 0 0 0 0 0 0 0 0 0 0 0 0 0 0.25 0"/>
<feBlend mode="normal" in2="BackgroundImageFix" result="effect1_dropShadow"/>
<feBlend mode="normal" in="SourceGraphic" in2="effect1_dropShadow" result="shape"/>
</filter>
</defs>
</svg>
