<svg xmlns="http://www.w3.org/2000/svg" width="100" height="79" fill="none">
  <path fill="#594D70" d="M15 73.603c-8.284 0-15-6.716-15-15V8.151a8 8 0 018-8h77.868c7.18 0 13 5.82 13 13v52.452a8 8 0 01-8 8H15z"/>
  <path fill="#C6C6C6" d="M7.65 70.314a6 6 0 01-6-6V9.795a8 8 0 018-8h81.12a7 7 0 017 7v61.519H7.65z"/>
  <rect width="69.368" height="96.155" x="3.846" y="74.151" fill="#594D70" rx="6" transform="rotate(-90 3.846 74.151)"/>
  <path fill="#F3A360" d="M67.01 1.796V.15h23.896a.822.822 0 010 1.644H67.01z"/>
  <path fill="#392E47" stroke="#8F7BAB" stroke-width="2" d="M51.082 11.018c15.831 0 28.66 12.806 28.66 28.6 0 15.793-12.829 28.6-28.66 28.6-15.83 0-28.66-12.807-28.66-28.6 0-15.794 12.83-28.6 28.66-28.6z"/>
  <path stroke="#8F7BAB" stroke-width="2" d="M52.18 17.047c11.843 0 21.52 10.062 21.52 22.57 0 12.51-9.677 22.571-21.52 22.571s-21.52-10.062-21.52-22.57c0-12.509 9.677-22.57 21.52-22.57z"/>
  <g filter="url(#ao-chan__filter0_d)">
    <path stroke="#8F7BAB" stroke-width="2" d="M74.152 71.959H6.592V6.729h67.56m-54.927.548V71.41m-6.453-14.8h12.613c7.215 0 13.064-7.73 13.064-17.266 0-9.536-5.849-17.267-13.064-17.267H12.871m-.099 34.533h-6.18m6.18 0c-.262-4.291-.075-9.833-.053-16.61m.053 16.61c.69 11.27 4.476 13.92 22.47 7.674 17.576-15.622 17.027-13.977 39.547 0M12.87 22.077H6.59m6.28 0c-.402 4.452-.177 10.434-.152 17.923m.152-17.923c.916-10.155 5.098-12.357 22.37-6.362 17.577 15.623 17.028 13.978 39.547 0M12.721 38.737c0 .426 0 .847-.002 1.263m0 0c.002.416.002.837.002 1.262" shape-rendering="auto"/>
  </g>
  <rect width="68.519" height="24.717" x="73.603" y="73.603" fill="#F3A360" rx="3" transform="rotate(-90 73.603 73.603)"/>
  <path fill="#583F7C" d="M75.8 28.106V7.276h20.322v20.83z"/>
  <path fill="#CA620B" stroke="#543838" stroke-width="2" d="M90.904 22.529c3.242 0 5.866 2.622 5.866 5.852 0 3.23-2.624 5.852-5.866 5.852-3.242 0-5.866-2.622-5.866-5.852 0-3.23 2.624-5.852 5.866-5.852z"/>
  <path stroke="#6A6182" stroke-linecap="round" stroke-width="5" d="M81.265 66.83V37.845m8.237 28.985V54.837"/>
  <path fill="#AD5472" d="M49.982 39.618c0-.606-.492-1.096-1.099-1.096a1.097 1.097 0 101.1 1.096z"/>
  <path fill="#AD5472" fill-rule="evenodd" d="M38.547 39.892c0 7.363 5.98 13.331 13.358 13.331s13.359-5.968 13.359-13.331c0-7.363-5.98-13.331-13.359-13.331-7.377 0-13.358 5.968-13.358 13.331zm12.633 9.423v1.89c-5.935-.374-10.633-5.296-10.633-11.313s4.698-10.94 10.633-11.313v1.341c-4.164.598-7.14 4.884-7.14 9.698s2.976 9.1 7.14 9.697zm2-19.394v-1.294c5.673.632 10.084 5.435 10.084 11.265 0 5.83-4.41 10.633-10.084 11.265v-1.842c4.165-.597 7.14-4.883 7.14-9.697 0-4.814-2.975-9.1-7.14-9.698zm-1 17.47c-1.53 0-2.998-.746-4.114-2.014 1.357-.248 2.59-.752 3.585-1.456 1.448-1.024 2.466-2.531 2.466-4.303 0-1.772-1.018-3.279-2.466-4.303-.996-.704-2.228-1.209-3.585-1.456 1.116-1.268 2.584-2.014 4.114-2.014 3.207 0 6.14 3.277 6.14 7.773 0 4.496-2.933 7.772-6.14 7.772zm-1.685-5.1c-.922.653-2.185 1.115-3.627 1.233-.522-1.129-.829-2.454-.829-3.906s.307-2.777.829-3.906c1.442.118 2.705.58 3.627 1.232 1.077.761 1.622 1.721 1.622 2.674 0 .953-.545 1.912-1.622 2.674z" clip-rule="evenodd"/>
  <defs>
    <filter id="ao-chan__filter0_d" width="77.724" height="75.23" x="1.592" y="3.729" color-interpolation-filters="sRGB" filterUnits="userSpaceOnUse">
      <feFlood flood-opacity="0" result="BackgroundImageFix"/>
      <feColorMatrix in="SourceAlpha" result="hardAlpha" values="0 0 0 0 0 0 0 0 0 0 0 0 0 0 0 0 0 0 127 0"/>
      <feOffset dy="2"/>
      <feGaussianBlur stdDeviation="2"/>
      <feComposite in2="hardAlpha" operator="out"/>
      <feColorMatrix values="0 0 0 0 0 0 0 0 0 0 0 0 0 0 0 0 0 0 0.25 0"/>
      <feBlend in2="BackgroundImageFix" result="effect1_dropShadow"/>
      <feBlend in="SourceGraphic" in2="effect1_dropShadow" result="shape"/>
    </filter>
  </defs>
</svg>
